<?xml version="1.0" encoding="UTF-8"?>
<svg id="Layer_2" data-name="Layer 2" xmlns="http://www.w3.org/2000/svg" viewBox="0 0 166.34 127.38">
  <defs>
    <style>
      .cls-1 {
        fill: #feed61;
        stroke-width: 0px;
      }
    </style>
  </defs>
  <g id="Layer_11" data-name="Layer 11">
    <g>
      <path class="cls-1" d="m60.99,105.91c-.43-.82-.62-1.72.63-1.77,2.55-.1,4.88-.88,7.14-1.97.46-.22.98-.55.78-1.06-.14-.34-.7-.62-1.12-.73-1.78-.48-3.52-.46-5.35.07-5.93,1.71-11.84,2.64-18.08,1.1-5.1-1.26-10.82,4.77-9.99,10.02.26,1.63.8,3.23.91,4.87.25,3.69,2.42,5.74,5.67,6.72,3.87,1.17,7.56,3.04,11.91.66,2.35-1.28,5.3,1.08,8.09.79.05,0,.28.59.2.84-.08.26-.4.6-.66.64-1.95.3-3.94.44-5.88.82-4.33.85-8.58.49-12.79-.69-6.31-1.77-9.09-5.07-9.33-11.76-.07-2.01-1.11-3.74-.84-5.85.47-3.68,2.85-5.74,5.53-7.71.51-.38.91-.9,1.36-1.36-.66-.07-1.32-.26-1.97-.19-2.8.28-5.88-1.38-8.38,1.34-.42.46-1.67-.14-2.02-.94-.31-.69.34-1.22.95-1.48,2.05-.89,3.77-1.95,6.48-1.55,4.89.71,9.95.28,14.94.29.29,0,1.44-.16.78-.52-1.64-.89-1.56-3.26-3.76-3.62-8.21-1.34-16.27-.44-23.81,2.69-5,2.07-7.33,7.1-8.63,12.17-.35,1.38.5,3.41,2.23,4.39.71.4,1.38.89,2.09,1.29.84.48,1.01,2.32,1.93,1.86,1.48-.73-.43-1.55-.42-2.42,0-.87.25-1.74,1.06-2.07.68-.27,1.06.5,1.5.97,1.45,1.55,1.3,4.04,3.19,5.32l-.35.27c-2.49,1.66-4.84,1.82-6.97-.62-.32-.37-.73-.67-1.12-.98-7.07-5.78-7.32-10.45-1.49-17.55,3.38-4.11,7.7-6.06,12.67-6.95,5.84-1.04,11.65-2.02,17.62-.37,2.33.64,4.93.3,7.41.41.26.54.31,1.27,1.06,1.38.14.02.52-.41.49-.56-.17-.73-.83-.82-1.45-.92q-.39-2.78-2.99-3.09c-.13-.05-.27-.09-.4-.14l.28.27c-4.14,1.88-9.03,1.52-11.63-.86-.18-.14-.34-.3-.46-.5.32-1.22,2.85-1.61,1.33-3.52l-.3-.3c-.31-.67-.93-.65-1.53-.68-.2-.13-.37-.3-.5-.5-1.48-.76-2.75-1.79-3.86-3.03-1.02-1.15-2.35-1.91-3.77-2.28-7.05-1.83-11.86-6.79-16.27-12.03-2.06-2.45-2.72-5.92-3.1-9.22.17-.17.34-.34.49-.52l.25-.09-.25-.1c-.16-.18-.32-.36-.49-.52-1.23-2.67-1.59-5.36-.1-8.07.24.18.47.38.68.59l.22.21c.17.17.36.33.54.48-.23,7.18,2.04,13.46,6.75,18.87-.05.14-.09.27-.14.41.09-.09.18-.19.27-.28,2.96,1.17,4.24,4.7,7.57,5.35.35,2.2,2.26,1.93,3.74,2.42,3.16,1.03,5.91,2.91,8.16,5.22,1.48,1.52,2.96,2.31,4.93,2.9,4.56,1.36,9.41,2.2,13.23,5.3,1.83,1.49,4.31,2.69,4.24,5.68-.05.14-.09.27-.14.41.09-.09.18-.19.27-.28,1.16-.3,2.41-.35,3.26.48,1.62,1.6,3.89,2.01,5.61,3.39-.05.14-.09.27-.14.41.09-.09.18-.19.27-.28,3.72-.84,7.15.93,10.75,1.26,1.45.13,2.95.7,4.4.45,5.36-.92,10.75-1.74,15.8-3.95,3.23-1.41,6.06-3.35,8.52-5.89,3.61-3.72,7.57-6.49,13.2-6.77,2.78-.14,5.46-2.17,8.19-3.35,0,0,.25.25.25.25.2,1.86,1.58,2.07,2.82,1.55,3.06-1.29,5.97-.72,8.92.2.11.14.22.28.32.43-2.42,1.81-5.49.25-8.08,1.6-1.24.64-3.14.25-1.69,2.53.02.03-.64.58-1.03.77-.47.22-.97.43-.79,1.02.16.5.75.69,1.2.52,2.06-.76,4.1-1.34,6.09.16.11.14.22.3.31.46-.62.63-1.42.76-2.26.83-.81.07-1.98.12-1.92,1.07.07,1.06,1.3.65,1.98.61,2.79-.19,5.25,1.17,7.89,1.66,2.46.46,4.89,1.88,6.28,4.45.77,1.43,1.98,2.63,2.98,3.93-.14.12-.28.25-.41.37-.24,0-.35.12-.35.36-.21.21-.43.4-.65.59-.27-.2-.61-.34-.79-.6-4.35-6.21-10.86-8.26-17.88-9.26-2.29-.32-4.62-.5-6.89.25-2.35.78-4.65,1.72-7.21,1.6-1.8-.08-2.62,1.15-3.12,2.68-.32.23-.65.46-.97.69.55.23.83-.15,1.11-.51,5.32-.04,10.64-.09,15.96-.12.67,0,1.48.15,1.58.87.16,1.16-.86,1.28-1.66,1.28-4.29.01-8.58-.05-12.87-.04-.44,0-1.23-.91-1.3.32,0,.14.83.44,1.29.46,1.33.07,2.71.28,3.98,0,4.1-.9,6.89,1.69,9.87,3.61,1.59,1.02,2.13,2.9,2.28,4.79.31,4.04-.42,7.92-1.83,11.7-.29.77-.43,1.64-1.33,1.97-4.66,1.71-9.32,3.42-13.99,5.08-.44.16-.99.1-1.48.03-.3-.04-.71-.21-.82-.45-.1-.21.04-.71.24-.86.66-.49,1.37-1.22,2.09-1.26,4.01-.18,6.93-2.96,10.46-4.19,2.25-.78,3.2-2.08,3.45-4.28.11-.97.58-1.9.77-2.87,1.18-5.88-2.33-10.49-8.39-10.93-1.82-.13-3.66-.11-5.49-.01-5.33.27-10.4-1-15.49-2.3-2.32-.59-4.39.05-6.32,1.52-2.96,2.25-6.21,3.66-9.93,1.85-.72-.35-1.11-.24-1.73.06-2.7,1.32-5.48,1.49-7.99-.29-1.63-1.16-2.89-.05-4.21.29-3.98,1.04-7.68,3.25-12,2.87-.11-.14-.22-.28-.32-.43Zm-14.82-19.76c-.29-.36-.56-.74-1.12-.5l.97.7c.13.29.23.61.42.86.18.23.58.6.67.54.77-.44.02-.72-.19-1.01-.18-.24-.49-.39-.75-.58Zm17.04,11.07c.28.36.55.75,1.11.52-.33-.23-.65-.45-.98-.68-.42-.21-.83-.54-1.27-.59-.59-.06-1.2.1-1.81.16.37.65,1.01.33,1.53.43.46.09.94.11,1.41.16Zm-15.99,1.88c-.14-.05-.27-.09-.41-.14.1.09.19.17.29.26,2.59,1.6,5.31.6,8.01.26-2.63-.13-5.26-.26-7.89-.38Zm79.93-9.01c-3.23.24-6.48.73-9.64-.52-1.19-.47-2.19.37-3.3.53-.14-.05-.27-.09-.41-.14.09.09.18.18.28.27.04.7-.56,1.76.81,1.78,4.22.05,8.5.45,12.39-1.79.05-.14.09-.27.14-.41-.09.09-.18.18-.27.28Zm-5.61-3.42c-.37.27-.89.65-1.41,1.03.6.22,1.19.44,1.79.65.56.2,1,0,1.04-.57.06-.79-.39-1.18-1.42-1.1Zm-17.69,11.01c1.91.56,3.48.49,5.05.14.04,0,.06-.17.08-.26-1.6-.36-3.18-.38-5.13.12Zm6.6-6.48c-.17.39-.5.81-.52,1.24-.01.36.45.44.7.12.18-.23.26-.57.3-.87.06-.43-.12-.61-.49-.49Zm-21.27,9.74c.38.17.81.5,1.24.51.36.01.44-.46.12-.7-.23-.18-.57-.26-.87-.3-.43-.06-.61.12-.49.5Zm42.19-11.17c-.03-.09-.05-.26-.09-.26-.11-.01-.23.04-.34.07.03.09.05.26.09.26.11.01.23-.04.34-.07Zm-15.48-3.11l.39.22.06-.33-.45.12Z"/>
      <path class="cls-1" d="m28,21.92c2.68-1.97,5.35-3.93,8.03-5.9.18.19.36.38.55.57l.21.21c.19.18.38.36.57.54-1.98,2.97-2.01,3.02.63,4.6,3,1.79,5.17,4.14,5.3,7.8.07,1.81.78,1.81,2.13,1.21,4.24-1.88,7.03-5.5,9.93-8.79,2.83-3.21,6.02-5.48,9.98-6.83.33-.22.65-.45.98-.67-.55-.24-.83.15-1.12.5-1.61-.24-2.19-3.45-4.86-1.3-.92.74-1.93-1.83-2.77-2.96-.73-.99.14-1.85.86-2.55.47-.46,1.05-.8,1.56-1.21q2.17-1.74.07-4.05c-.47-.52-.95-1.15-.13-1.58C61.83.47,63.88.04,66.1,0c1.92-.04,3.07.88,4.11,2.22.28.36.55.75,1.11.51l-.97-.69c2.77-.88,7.7,1.2,8.5,3.57.27.81-.16,1.39-.83,1.49-1.31.19-2.66.32-3.96.19-3.85-.37-7.56.62-11.32,1.06-.6.07-1.18.51-1.71.88-.23.16-.43.59-.39.85.07.39.44.43.79.26,5.05-2.44,9.94-1.17,14.77.7,1.24.48,1.44-1.12,2.49-.93.63.12,1.5-.16,1.8.5.31.66-.29,1.23-.9,1.5-2.27,1-4.5,2.12-6.85,2.86-2.56.81-4.84,2.15-7.26,3.22-3.69,1.64-6.73,3.8-9.14,7.28-3.07,4.41-7.51,7.43-12.86,8.82-.64.16-1.4.15-1.89.51-1.22.9-2.45,2.34-1.62,3.69.8,1.3,2.39.51,3.5-.35,1.15-.88,2.02-2.39,3.8-1.78.32.11.74.87.64,1.15-.64,1.78-2.38,2.15-3.91,2.73-.93.35-1.89.61-2.83.91-.28-.36-.53-.8-1.11-.54.33.24.65.48.98.71-.42,1.43-1.27,2.21-2.38.78-1.48-1.91-2.25-4.09-.82-6.47.34-.57.71-1.16.88-1.78.39-1.44,2.68-1.89,2.1-3.69-.5-1.56-1.21-3.12-2.14-4.47-1.58-2.3-5.36-3.31-8.35-2.5-.32.09-.65.11-.98.17-.18-.19-.36-.38-.55-.57l-.21-.2c-.21-.21-.4-.44-.59-.67Z"/>
      <path class="cls-1" d="m102.02,18.36c-3.94-2.04-7.88-4.07-11.81-6.13-.44-.23-.86-.68-.62-1.18.18-.37.67-.8,1.05-.83,1.48-.1,2.99-.16,4.47-.01.99.1,1.92.5,2.78-.34,1.2-1.17,2.89-.48,4.25-1.08-1.36-.94-3.42-.77-4.41-1.65-2.61-2.33-4.31.29-6.38.63-.79.13-1.66.81-2.3.14-.89-.94-.04-1.96.56-2.57,1.4-1.4,2.99-2.78,4.93-3.2,5.31-1.16,10.67-1.93,16.02-.05.79.28,1.6.41,2.12,1.15.31.44.4.92.05,1.33-.18.21-.6.43-.83.37-1.43-.4-2.82-.93-4.26-1.29-.4-.1-.98.11-1.33.37-.46.35-.13.74.1,1.2.96,1.88,2.12,3.28,4.54,2.87.6-.1,1.42-.07,1.61.71.18.74-.48,1.21-.99,1.6-1.95,1.46-3.73.79-5.45-.5-.23-.17-.62-.28-.87-.21-.35.1-.39.48-.13.82,1.87,2.43-.02,3.66-1.65,4.82-.98.7-.17,1.93-1.05,2.55-.1.17-.22.33-.36.48Zm1.06-15.85l-.03.34.44-.14-.42-.2Z"/>
      <path class="cls-1" d="m145.02,78.05c.46-.93,1.26-1.47,2.12-2.02,5.18-3.34,8.64-8.06,10.78-13.79.81-2.16,1.53-4.36,2.43-6.49.71-1.67,1.56-3.27,3.24-4.28,1.93-1.17,2.64-.91,2.71,1.32.16,5.13.13,10.07-2.94,14.76-2.58,3.95-3.16,9.03-6.13,12.91-2.13,2.79-4.47,5.33-7.77,6.77-.61.27-1.25.83-1.81.76-3.13-.42-6.13,1.15-9.25.53-.09-.16-.19-.31-.31-.46,1.75-1.38,3.82-2.16,5.95-1.94,4.46.48,7.03-2.32,9.49-5.18,1.38-1.61,2.39-3.58,3.38-5.48,1.91-3.66,3.72-7.37,5.49-11.1.63-1.34,1.13-2.77,1.47-4.21.3-1.28.38-2.63-.04-3.93-1.3.67-1.52,2.07-2.05,3.2-.91,1.94-1.64,3.97-2.36,6-.49,1.39-.7,2.91-2.2,3.68-.14-.05-.28-.09-.43-.14l.3.27c-1.59,3.75-4.54,6.19-7.69,8.61-1.52,1.17-2.69.57-4.07.52l-.31-.31Zm19.48-24.35c-.21-.03-.42-.05-.63-.08.1.07.19.2.29.21.11.01.22-.08.34-.13Z"/>
      <path class="cls-1" d="m150.14,34.18c-.09,1.86.83,3.47,1.4,5.13.47,1.38.44,2.5-.19,3.71-.15.15-.31.27-.49.37-2.11-2.89-2.54-6.43-3.75-9.66-.25-.68.2-1.94-.92-1.83-.55.05.09,1.15.09,1.78-.05,5.39-2.16,9.72-6.68,12.73-2.64,1.76-2.85,1.81-1.25,4.15,1.2,1.76,1.77,3.53,1.41,5.54-.14.77-.7,1.48-1.15,2.17-.15.23-.57.28-.86.42-.12-.28-.43-.66-.34-.84,1.5-2.99-.02-5-2.1-6.93-1.72-1.59-1.35-3.19.21-4.73.95-.94,2.09-1.62,3.12-2.44,5.85-4.69,6.77-9.87,3.58-16.26-.65-1.3-1.64-2.05-2.88-2.58-1.52-.65-2.46-1.65-2.32-3.4.1-.18.22-.34.36-.48,3.76.73,5.5,3.76,7.45,6.55.35.51.62,1.08.93,1.62.46-.59.31-1.26.19-1.9-.09-.48-.35-.92-.49-1.4-.14-.48-.1-1,.44-1.15.24-.07.64.17.86.38.95.92,2.04,1.77,2.73,2.86,2.87,4.52,6.17,8.8,7.9,13.96.3.91,1.17,1.91.55,2.81-.92,1.34-.14,4.01-.65,3.93-1.89-.3-.96-2.39-1.33-3.68-1.16-4.04-3.29-7.54-5.59-10.96-.23-.32-.46-.65-.69-.97-.24.55.16.83.5,1.12Z"/>
      <path class="cls-1" d="m6.16,65.17c1.71,6.12,4.08,11.92,8.2,16.87-.19.18-.38.36-.57.55l-.2.21c-.18.19-.37.38-.55.57-3.82-2.33-5.27-6.33-6.8-10.14-1.64-4.09-2.73-8.38-4.76-12.35-1.97-3.84-1.6-8.03-.95-12.14.06-.39.53-.83.92-1.04.5-.28.99.09,1.25.5.52.84,1.04,1.71,1.39,2.63,1.46,3.86,2.95,7.71,4.25,11.62.65,1.95,2.69,2.36,3.68,3.88.44.68,1.26,1.26.4,2.1-.85.84-1.46.07-2.1-.42-1.31-1-2.64-1.98-3.96-2.96-.42-.92-.12-2.13-1.14-2.81-.24-2.18-.93-4.22-1.88-6.19-.23-.32-.46-.65-.68-.97-.24.55.15.83.5,1.12.09,2.22.56,4.33,1.87,6.18.44.91.15,2.13,1.15,2.81Z"/>
      <path class="cls-1" d="m121.29,30.03c1,0,2,.04,3-.03.88-.06,1.56-.31,1.41-1.52-.4-3.2,1.57-5.25,3.69-7.18.94-.86,1.44-1.56.45-2.91-1.97-2.66-3.47-5.67-6.02-7.89-1.94-1.69-3.59-3.74-6.65-3.42-.81.08-1.78-.78-2.56-1.36-.29-.22-.38-.91-.32-1.35.07-.54.53-.71,1.09-.6,3.49.71,6.73,1.17,9.38,4.5,2.33,2.93,5.45,5.23,7.14,8.78.49,1.03,1.5,1.79,2.75,1.99,1.24.21,2.13.89,2.7,1.99-.14.15-.26.31-.36.48-4.03.31-7.38,1.52-8.8,5.88-.46,1.4-.78,2.42.42,3.54,2.05,1.93,2.97,4.35,2.72,7.18-.19.15-.37.31-.54.47l-.21.22c-.22.21-.45.41-.7.58-.19-.26-.5-.5-.54-.78-.62-4.77-3.1-7.15-8.1-6.44-.37.05-.82-.44-1.23-.68.18-.24.38-.46.58-.67l.21-.21c.17-.18.34-.37.5-.56Z"/>
      <path class="cls-1" d="m150.19,111.23c1.48-1.21,2.01-4.88,4.4-3.22,1.37.95-1.24,3.2-2.25,4.81-2.51,4.03-5.93,6.87-10.24,8.77-.78.34-1.5.97-2.17.24-.67-.73.02-1.6.41-2.23,1.8-2.96,3.6-5.92,5.61-8.74.97-1.36.94-2.24-.17-3.42-2.48-2.65-5.5-4.81-7.29-8.09-.14-.25-.51-.48-.81-.52-.67-.11-1.58.8-1.93-.51-.03-.12.11-.31.22-.43.79-.8,1.77-1.02,2.71-.5,1.3.71,2.71,1.4,3.7,2.46,2.63,2.81,5.1,5.78,7.55,8.75.55.66.33,1.58.09,2.4-1.9.19-2.88,1.23-2.93,3.14-.33.33-.67.67-1,1-.05.14-.09.27-.14.41.09-.09.18-.18.27-.28.33-.33.67-.67,1.01-1,.99-1.02,1.97-2.04,2.96-3.06Z"/>
      <path class="cls-1" d="m31.24,48.28c1.06.46,1.01,1.24.43,1.97-2.91,3.69-2.39,6.95,1.12,9.91.46.39,1.15.94.68,1.59-.5.69-1.19.05-1.79-.13-.64-.19-1.3-.29-1.93-.5-1.24-.41-1.53.32-1.37,1.25.17.96.53,1.91.93,2.81.47,1.08.16,1.47-.78,2.32-3.8,3.43-3.74,3.56-5.64-1.42-.99-2.6-3.1-4.82-2.81-7.87.04-.45.32-.88.48-1.32.35.32.78.59,1.03.97,1.16,1.81,2.27,3.66,3.39,5.5.09.29.16.59.26.87.13.33-.08.87.51.91.03,0,.22-.57.13-.8-.15-.41-.46-.75-.71-1.12-.04-.5-.02-1.01-.14-1.48-.67-2.61,3.19-3.59,2.12-6.6-.9-2.51,1.52-4.59,2.17-6.97.32-1.16,1.21-.72,1.82.03-.41.14-.49.29-.23.35.08.02.2-.17.31-.26Z"/>
      <path class="cls-1" d="m83.04,33.35c-.49.1-1.12.04-1.43.32-3.75,3.38-8.01,2.04-12.12,1.23-3.66-.72-7.14-1.01-10.69.55-2.38,1.04-5.18.49-7.63,1.55-.28.12-.97-.3-1.22-.64-.53-.73.08-1.09.65-1.48,3.31-2.28,7.28-2,10.97-2.71,2.39-.46,5.02-.32,7.43.15,3.89.75,7.44.03,10.95-1.49,2.38-1.03,2.38-1.06,3.45,2.07-.1.16-.22.31-.35.45Z"/>
      <path class="cls-1" d="m52.79,57.49c-1.52-.36-2.63-.77-3.76-.84-1.07-.06-2.6,1.34-3.11.07-.53-1.34,1.17-2.11,2.32-2.69,5.31-2.69,10.64-5.34,15.98-7.97.51-.25,1.24-.85,1.73,0,.48.83.18,1.67-.63,2.09-3.52,1.84-7.08,3.59-10.6,5.42-.56.29-1.03.76-1.54,1.15.5.56,1.17.34,1.78.38,1.36.09,2.64-.14,3.71-1.07,1.25-1.08,2.73-1.1,4.22-.81.4.08.71.57,1.06.87-.19.22-.35.57-.59.63-3.63.97-7.27,1.9-10.59,2.76Z"/>
      <path class="cls-1" d="m29.34,23.36c-1.29,1.51-2.85,2.87-3.77,4.58-.86,1.6-3.19,2.53-2.85,4.45.42,2.39,1.24,4.87,2.53,6.91,1.07,1.71,1.73,4.2,4.55,4.4.53.04,1.15,1.22.68,2.06-.39.7-1.21.49-1.8.25-4.83-2-6.57-6.23-7.54-10.88-.3-1.43-.06-2.98-.06-4.47.06-.28.21-.5.44-.66.84-1.58,1.71-3.14,2.49-4.75.84-1.73,2.2-2.79,4-3.34.18.23.38.46.59.67l.21.2c.18.19.36.38.55.57Z"/>
      <path class="cls-1" d="m20.15,30.67c-1.18,4.49-1.97,9.09-4.03,13.32-.61,1.26.54,2.5.32,3.8-.08.21-.2.4-.37.56-1.31-1.23-2.62-2.46-3.93-3.7.06-.28.21-.49.45-.65,1.6-3.03,3.12-6.1,4.83-9.07.57-1,.69-1.81.15-2.75-.38-.65-.57-1.69-1.63-.46-.57.67-1.6.7-2.12-.18-.49-.83.2-1.5.63-2.21.69-1.14,2.25-.61,3.04-2.11.94-1.77,2.15-1.32,2.84.81.2.62.18,1.31.26,1.97-.23.16-.38.38-.44.66Z"/>
      <path class="cls-1" d="m36.03,16.02c.74-1.09,1.51-2.15,2.2-3.27,2.83-4.57,6.13-8.27,12.05-8.88,2.08-.22,4.5-.34,6.35-1.89.33-.28,1-.33,1.3.23.33.64.29,1.39-.42,1.68-1.82.75-3.67,1.84-5.56,1.95-5.32.32-8.02,3.97-10.76,7.69-1.09,1.48-2.27,2.83-3.83,3.81-.19-.18-.38-.36-.57-.54l-.21-.21c-.18-.19-.37-.38-.55-.57Z"/>
      <path class="cls-1" d="m56.38,106.46c.25.58.73,1.49-.15,1.62-2.29.35-4.45,1.18-6.81,1.35-4.64.34-5.02.95-5.1,5.43-.02,1,.05,2.01-.05,3-.27,2.42-1.61,2.94-3.8,1.57-.67-.42-1.11-1.09-.44-1.5,2.96-1.82,1.78-4.7,2.01-7.2.18-1.96-.28-4.61,3.1-2.43,3.44-1.71,7.33-1.26,10.91-2.25.11.14.22.28.32.42Z"/>
      <path class="cls-1" d="m96.32,33.02c.93-1.22,1.93-2.25,3.7-1.84,4.66,1.08,9.42,1.41,14.16,1.88,1.24.12,2.11.79,3.11,1.39,1.34.8,2.24,2.34,4.21,2.22.76-.05.81,1.28.87,2.11-.07.2-.17.39-.31.55-3.11-1.35-6.13-3.02-9.36-3.99-5.33-1.59-10.88-1.12-16.37-.99-.15-.17-.31-.34-.47-.5v-.33c.17-.16.32-.33.47-.5Z"/>
      <path class="cls-1" d="m122.85,107.06c2.95.04,2.99.12,2.68,2.99-.31,2.81-.63,5.64.84,8.28.63,1.13.24,1.86-.9,2.32-1.85.74-3.68,1.51-5.52,2.25-.9.36-1.68.11-2.1-.72-.47-.91.49-1.04.96-1.4,1.27-.96,3.57-.48,4-2.54.52-2.45.3-4.97.11-7.46-.05-.75-.58-1.14-1.26-1.36-.87-.28-2.37-.14-1.96-1.55.3-1.05,1.68-.76,2.65-.82.17-.01.33,0,.5,0Z"/>
      <path class="cls-1" d="m143.03,61.93c1.82-2.03,2.03-4.75,2.81-7.16,1.28-4,3.46-7.55,5.03-11.38.18-.1.34-.23.49-.37,2.57,1.8,2.55,1.79.67,4.18-2.71,3.43-3.56,7.68-4.87,11.69-.69,2.11-1.34,3.64-3.84,3.46l-.28-.41Z"/>
      <path class="cls-1" d="m153.21,61.19c.95-2.75,1.9-5.49,2.83-8.25.28-.84.68-1.61,1.65-1.52,1.37.12.84,1.2.67,1.88-1.72,6.62-4.09,12.87-9.99,17.05-.15-.16-.27-.35-.35-.56.54-3.54,2.86-6.01,5.13-8.51.14.04.28.08.42.12l-.35-.2Z"/>
      <path class="cls-1" d="m100.11,102.22c.77.31,1.68.67,2.58,1.04,3.58,1.48,7.03,3.45,11.12,3.11,1.36-.11,1.68,1.5,2.88,1.71.39.07,1.03.28.49.9-.18.2-.62.32-.9.27-5.82-1.02-11.7-1.85-17.1-4.46-.54-.26-1.47-.5-1.28-1.2.22-.83,1.26-.94,2.21-1.38Z"/>
      <path class="cls-1" d="m79.32,71.02c.99.73,1.6,1.86,1.69,2.92.41,4.72.4,9.48,1.23,14.17.12.65-.14,1.48-.8,1.62-1.13.23-1.12-.78-1.37-1.56-1.54-4.74-.44-9.81-1.85-14.58-.18-.62.5-1.5.78-2.26l.31-.31Z"/>
      <path class="cls-1" d="m37.49,82.37c-.19.8-.21,1.7-.59,2.39-.63,1.13-1.71,1.94-2.69.49-1.09-1.63-2.52-1.94-4.28-1.96-.97-.01-2.01-.18-2.9-.56-1.64-.7-4.9-.59-4.14-2.9.6-1.81,3.16.34,4.87.56,3.09.4,6.16.98,9.24,1.49.13.2.29.37.5.5Z"/>
      <path class="cls-1" d="m114.88,26.39c-.85.51-1.86,1.24-2.67.32-2.94-3.36-7.13-5.17-10.19-8.35.14-.14.26-.3.36-.48,1.36.11,2.61-.45,4.09.63,3.15,2.3,6.62,4.17,8.88,7.51-.14.14-.3.26-.47.37Z"/>
      <path class="cls-1" d="m111.47,60.47c-2.84.7-6.26-2.22-10.11-1.38-.48.1-.86-.44-.78-.98.04-.26.31-.63.54-.7.62-.19,1.29-.37,1.92-.31,4.24.36,8.47.77,12.7,1.2.48.05.92.3,1.01.86.1.64-.42.92-.85.98-1.13.16-2.29.19-4.43.35Z"/>
      <path class="cls-1" d="m85.03,75.06c-1.36-1.92-.95-4.13-.96-6.25-.02-3.73.7-7.44.32-11.18-.06-.54.12-1.02.67-1.11.56-.09.84.39,1,.86.1.31.12.65.12.98,0,5.25.03,10.5-.02,15.75,0,.43-.46.85-.7,1.27-.15-.1-.29-.21-.42-.32Z"/>
      <path class="cls-1" d="m131.33,38.11c1.45,1.08,1.01,2.66.93,4.05-.16,2.63-1.26,3.19-3.22,1.48-2.12-1.84-5.04-2.26-6.98-4.31.14-.16.24-.35.31-.55,2.85-1.3,4.96,1.01,7.44,1.5.01,0,.11-.28.12-.43.01-.15-.03-.31-.05-.47.25-.18.48-.37.7-.58l.21-.22c.17-.17.35-.32.54-.47Z"/>
      <path class="cls-1" d="m95.05,34.35c-2.55,1.27-5.05,2.15-7.52-.27-.83-.81-2.06-.78-3.2-.73-.13-.14-.25-.29-.35-.46.25-.58.56-1.15.74-1.76.39-1.36,1.45-1.13,2.34-.93,1.11.25-.88,2.34,1.08,2.13.85-.09,1.63-1.03,2.47-1.08,1.68-.11,2.99,1.07,4.44,1.77.15.17.31.33.47.5v.33c-.16.16-.31.33-.47.5Z"/>
      <path class="cls-1" d="m26.48,102.14c-.09.2-.12.39-.22.49-2.44,2.4-4.87,4.82-7.35,7.18-.36.34-.96.29-1.28-.21-.16-.25-.27-.61-.22-.89.41-2.27,5.12-7.21,7.3-7.56.73-.12,1.71-.2,1.78.99Z"/>
      <path class="cls-1" d="m139.29,74.15c.76-1.65,2.29-.89,3.5-1.13.24.1.44.26.59.48-1.06,1.28-2.05,2.69-3.92,2.79-2.16.11-3.54,1.69-5.26,2.65-.53.3-1.05,1.06-1.67.49-.73-.68-.33-1.55.14-2.25,1.55-2.32,3.98-2.72,6.49-2.89.14.05.27.09.41.14-.09-.09-.19-.18-.28-.27Z"/>
      <path class="cls-1" d="m38.46,87.37c-.27,1.34-1.12,1.87-2.46,1.93-3.15.14-6.25-.03-9.26-1.05-.47-.16-1.03-.28-.87-.86.12-.4.54-.82.93-1.01.93-.45,1.96-.4,2.89-.02,2.72,1.1,5.52.67,8.31.51.12.2.27.36.46.5Z"/>
      <path class="cls-1" d="m9.9,46c1.59-2.78.63-6.14,2.07-8.95.26-.51.14-1.42,1.11-1.19.71.17.97.81,1.11,1.46.48,2.3-1.52,4.35-.67,6.69-.24.15-.39.37-.45.65-1.22.45-.47,2.2-1.72,2.63-.19-.15-.37-.31-.54-.48l-.22-.21c-.22-.21-.44-.41-.68-.59Z"/>
      <path class="cls-1" d="m14.36,82.04c2.38,1.74,4.79,3.43,7.76,4.01.59.12,1.48.03,1.4.9-.09.97-1,1.19-1.83,1.29-1.94.24-3.41-.96-5.04-1.68-1.55-.69-2.76-1.73-3.62-3.19.18-.19.36-.38.55-.57l.2-.21c.19-.18.38-.36.57-.55Z"/>
      <path class="cls-1" d="m110.83,54.08c-2.45-1.24-5.01-2.07-7.04-3.85-.28-.24-.37-.94-.24-1.34.16-.5.77-.64,1.25-.44,2.28.99,4.56,1.99,6.79,3.08.69.34.68,1.17.4,1.77-.17.35-.75.52-1.15.77Z"/>
      <path class="cls-1" d="m89.32,83.29c.26,2.83-1.12,5.39-1.32,8.16-.07.96-1.03,1.83-2.15,1.35-.83-.36-.76-1.35-.49-2.17.83-2.45,1.04-5.13,2.65-7.3l.31-.31c.18-.04.36-.06.55-.03.16.09.31.19.45.3Z"/>
      <path class="cls-1" d="m16.37,73.02c1.33,1.24,2.7,2.44,3.97,3.73.57.58,1.09,1.39.16,2.11-.75.58-1.72.44-2.26-.19-1.17-1.37-2.16-2.91-3.22-4.37.19-.17.38-.34.56-.52.22-.01.34-.13.35-.36.14-.14.29-.27.43-.4Z"/>
      <path class="cls-1" d="m111.02,127.26c-1.04-.04-2.1-.28-2.32-1.42-.18-.93.67-1.38,1.47-1.66.15-.05.32-.11.48-.11,1.07,0,2.09-1.36,3.17-.2.26.28.3.94.18,1.36-.41,1.46-1.46,2.12-2.98,2.04Z"/>
      <path class="cls-1" d="m17.36,47.79c.33-.06.81-.28.95-.14,1.97,1.86,2.44,4.67,1.19,7.03-.15.28-.37.64-.63.7-.64.15-.7-.41-.78-.85-.37-2.05-.74-4.11-1.11-6.17.16-.16.28-.35.37-.56Z"/>
      <path class="cls-1" d="m144.18,64.19c.05.98.1,1.95-.33,2.9-.98,2.15-1.98,2.4-3.64.74-1.22-1.21-1.53-2.13.8-2.35,1.09-.1,2.12-.84,3.18-1.28h0Z"/>
      <path class="cls-1" d="m120,31.47c-2.58-.81-5.12-1.66-5.11-5.08.17-.11.33-.23.47-.37,2.09,1.18,4.18,2.34,5.93,4.01-.16.19-.33.38-.5.56l-.21.21c-.21.21-.4.44-.58.67Z"/>
      <path class="cls-1" d="m25.33,117.07c.92,1.12,1.86,2.23,2.77,3.37.47.59,1.36,1.17.64,2.03-.5.6-1.22.05-1.79-.12-3.31-.99-3.53-1.6-1.97-5,0,0,.35-.27.35-.27Z"/>
      <path class="cls-1" d="m148.36,70.35c-1.11,1.93-2.71,3.08-4.99,3.16-.15-.22-.34-.38-.59-.48-.03-.49-.16-1.37-.07-1.4,1.81-.49,3.09-2.55,5.3-1.84.08.21.19.4.35.56Z"/>
      <path class="cls-1" d="m89.19,78.19c0-1.46-.5-2.98.36-4.33.21-.33.8-.52,1.24-.56.51-.05,1.02.29.83.88-.57,1.7.26,3.69-1.13,5.2-.26-.19-.5-.39-.73-.61-.06-.31-.26-.5-.58-.58h0Z"/>
      <path class="cls-1" d="m143.31,62.34c-.56.91-1.54,1.23-2.44,1.57-.64.25-1.34.18-1.16-.87.09-.48.2-.97.23-1.46.07-1.02-1.2-2.58.56-2.89,1.78-.31,1.05,1.5,1.38,2.43.13.36.75.54,1.15.81l.28.41Z"/>
      <path class="cls-1" d="m46.33,120.02c1.69.24,3.16.93,4.33,2.18.34.36.44.88.13,1.34-.34.51-.89.56-1.25.16-1.1-1.2-3.82-.72-3.51-3.38l.31-.31Z"/>
      <path class="cls-1" d="m86.37,81.49c-.13.58-.21,1.22-.43,1.81-.08.22-.48.44-.74.45-.26,0-.67-.21-.74-.42-.21-.59-.37-1.24-.37-1.86,0-.92-.32-2.44.66-2.54,1.47-.16,1.4,1.41,1.63,2.57Z"/>
      <path class="cls-1" d="m118.29,55.03c.48.02.96,0,1.43.07,1.21.21,2.31.73,1.67,2.18-.47,1.07-1.53.96-2.45.39-.66-.41-1.29-.89-1.93-1.33.19-.19.39-.37.58-.56l.19-.19c.17-.18.34-.37.5-.56Z"/>
      <path class="cls-1" d="m155.05,105.36c-1.28-.74-2.69-1.35-3.12-2.98.23-.19.44-.39.65-.59.22,0,.33-.13.35-.36.14-.12.27-.25.41-.37,1.71.81,2.07,2.29,2.01,3.99l-.31.31Z"/>
      <path class="cls-1" d="m164.02,46.15c.13-.88-.08-1.6.51-2.1.06-.05.25,0,.35.07.53.3,1.16,4.2.69,4.53-.46.33-.99.21-1.15-.34-.23-.77-.3-1.59-.4-2.16Z"/>
      <path class="cls-1" d="m15.02,74.3c-.93-.56-1.17-1.54-1.29-2.47-.1-.77.04-1.74.94-1.97.25-.06.84.81,1.12,1.33.29.56.39,1.21.57,1.82-.15.13-.29.26-.43.4-.24,0-.36.11-.35.36-.18.18-.37.35-.56.52Z"/>
      <path class="cls-1" d="m90.49,79.38c-.39,1.3.3,2.93-1.17,3.91-.14-.11-.29-.21-.45-.3.34-1.58-1.91-3.34.32-4.8h0c.08.32.27.51.58.57.23.22.48.43.73.61Z"/>
      <path class="cls-1" d="m117.01,56.34c-1.26-.74-2.26-1.74-3-3.01l.31-.31c1.54.24,2.93.77,3.96,2.01-.16.19-.33.38-.5.56l-.19.19c-.19.19-.39.37-.58.56Z"/>
      <path class="cls-1" d="m116.53,123.72c-.12.06-.24.18-.35.17-.11-.01-.2-.16-.3-.24.26-.27.48-.25.66.07Z"/>
      <path class="cls-1" d="m61.31,106.34c-.35.55-1.03,1.12-1.39.5-.44-.77.62-.68,1.06-.92.1.15.21.29.32.43Z"/>
      <path class="cls-1" d="m56.06,106.04c.35-.53,1.02-1.1,1.38-.49.43.75-.62.66-1.05.91-.1-.15-.21-.29-.32-.42Z"/>
      <path class="cls-1" d="m123.69,58.67c-.11-.23-.24-.46-.31-.7-.02-.06.2-.18.31-.27.11.23.24.46.31.7.02.06-.2.18-.31.27Z"/>
      <path class="cls-1" d="m85.46,75.39c-.24.45-.15,1.5-.92,1.06-.62-.36-.05-1.03.49-1.39.14.11.28.22.42.32Z"/>
      <path class="cls-1" d="m142.06,81.04c.35-.55,1.03-1.12,1.39-.5.44.77-.62.68-1.07.92-.1-.15-.21-.29-.32-.43Z"/>
      <path class="cls-1" d="m88.02,83.33c-.12-.22-.24-.45-.36-.67.22.12.45.24.67.36l-.31.31Z"/>
      <path class="cls-1" d="m39.32,83.35c-.22.12-.44.24-.66.37.12-.22.24-.44.36-.66l.3.3Z"/>
      <path class="cls-1" d="m10,55.31c-.71-.41-.71-.82,0-1.24.17.16.34.34.49.52v.19c-.16.18-.32.36-.49.52Z"/>
      <path class="cls-1" d="m114.02,53.33c-.13-.23-.25-.46-.38-.69.23.12.46.25.69.37l-.31.31Z"/>
      <path class="cls-1" d="m145.33,78.36c-.23.13-.46.25-.68.38l.37-.68.31.31Z"/>
      <path class="cls-1" d="m130.07,79.05c.11-.1.22-.21.35-.29.02-.01.21.17.2.19-.08.13-.19.23-.29.35l-.25-.25Z"/>
      <path class="cls-1" d="m96.32,34.36c-.43.74-.85.74-1.27,0,.15-.17.31-.34.47-.5h.33c.16.17.32.34.47.51Z"/>
      <path class="cls-1" d="m84.34,33.35c-.43.74-.86.75-1.3,0,.13-.14.24-.29.35-.45.2.06.4.05.6,0,.1.16.22.32.35.46Z"/>
      <path class="cls-1" d="m95.05,33.02c.43-.74.85-.74,1.27,0-.15.17-.31.34-.47.5h-.34c-.16-.17-.32-.34-.47-.5Z"/>
      <path class="cls-1" d="m155.35,105.05l.38.68c-.23-.13-.46-.25-.68-.38l.31-.31Z"/>
      <polygon class="cls-1" points="77.52 30.66 77.77 30.58 77.73 30.82 77.52 30.66"/>
      <path class="cls-1" d="m144.19,64.19c.07-.13.16-.37.21-.36.29.04.21.19-.22.35,0,0,0,0,0,0Z"/>
      <path class="cls-1" d="m46.02,120.33c-.13-.23-.25-.46-.38-.68l.68.38s-.31.31-.31.31Z"/>
      <path class="cls-1" d="m79.02,71.33c-.12-.23-.25-.45-.37-.68.23.12.45.25.68.37l-.31.31Z"/>
    </g>
  </g>
</svg>